<mxfile host="app.diagrams.net" modified="2024-03-02T12:29:55.302Z" agent="Mozilla/5.0 (Windows NT 10.0; Win64; x64; rv:123.0) Gecko/20100101 Firefox/123.0" etag="gNt6At4a_FlLB0sUs-dK" version="23.1.6" type="github" pages="2">
  <diagram name="ISA88" id="58cdce13-f638-feb5-8d6f-7d28b1aa9fa0">
    <mxGraphModel dx="2390" dy="1303" grid="1" gridSize="10" guides="1" tooltips="1" connect="1" arrows="1" fold="1" page="1" pageScale="1" pageWidth="1169" pageHeight="827" background="none" math="0" shadow="0">
      <root>
        <mxCell id="0" />
        <mxCell id="1" parent="0" />
        <mxCell id="aAmiJ_XI5m1NhXgfSYHL-29" value="" style="rounded=0;whiteSpace=wrap;html=1;fontFamily=Helvetica;fontSize=11;fontColor=default;labelBackgroundColor=default;fillColor=#E6E6E6;" vertex="1" parent="1">
          <mxGeometry x="80" y="550" width="970" height="110" as="geometry" />
        </mxCell>
        <mxCell id="aAmiJ_XI5m1NhXgfSYHL-28" value="" style="rounded=0;whiteSpace=wrap;html=1;fontFamily=Helvetica;fontSize=11;fontColor=default;labelBackgroundColor=default;fillColor=#E6E6E6;" vertex="1" parent="1">
          <mxGeometry x="80" y="440" width="970" height="110" as="geometry" />
        </mxCell>
        <mxCell id="aAmiJ_XI5m1NhXgfSYHL-25" value="" style="rounded=0;whiteSpace=wrap;html=1;fontFamily=Helvetica;fontSize=11;fontColor=default;labelBackgroundColor=default;fillColor=#E6E6E6;" vertex="1" parent="1">
          <mxGeometry x="80" y="80" width="970" height="360" as="geometry" />
        </mxCell>
        <mxCell id="aAmiJ_XI5m1NhXgfSYHL-9" value="" style="edgeStyle=orthogonalEdgeStyle;rounded=0;orthogonalLoop=1;jettySize=auto;html=1;" edge="1" parent="1" source="382b91b5511bd0f7-7" target="aAmiJ_XI5m1NhXgfSYHL-3">
          <mxGeometry relative="1" as="geometry" />
        </mxCell>
        <mxCell id="382b91b5511bd0f7-7" value="Held" style="rounded=0;whiteSpace=wrap;html=1;arcSize=24;fillColor=#FF8000;strokeColor=#000000;shadow=0;comic=0;labelBackgroundColor=none;fontFamily=Verdana;fontSize=12;fontColor=#000000;align=center;rotation=0;" parent="1" vertex="1">
          <mxGeometry x="505" y="100" width="120" height="60" as="geometry" />
        </mxCell>
        <mxCell id="qw5E-p2FazVa0dcF7oxH-25" style="edgeStyle=orthogonalEdgeStyle;rounded=0;orthogonalLoop=1;jettySize=auto;html=1;entryX=0.5;entryY=1;entryDx=0;entryDy=0;strokeColor=default;align=center;verticalAlign=middle;fontFamily=Helvetica;fontSize=11;fontColor=default;labelBackgroundColor=default;endArrow=block;endFill=1;exitX=0.75;exitY=0;exitDx=0;exitDy=0;" parent="1" source="382b91b5511bd0f7-10" edge="1">
          <mxGeometry relative="1" as="geometry">
            <mxPoint x="765" y="160" as="targetPoint" />
          </mxGeometry>
        </mxCell>
        <mxCell id="aAmiJ_XI5m1NhXgfSYHL-33" value="Hold" style="edgeLabel;html=1;align=center;verticalAlign=middle;resizable=0;points=[];fontFamily=Helvetica;fontSize=11;fontColor=default;labelBackgroundColor=#E6E6E6;" vertex="1" connectable="0" parent="qw5E-p2FazVa0dcF7oxH-25">
          <mxGeometry x="-0.2296" y="-2" relative="1" as="geometry">
            <mxPoint x="1" y="1" as="offset" />
          </mxGeometry>
        </mxCell>
        <mxCell id="aAmiJ_XI5m1NhXgfSYHL-14" style="edgeStyle=orthogonalEdgeStyle;rounded=0;orthogonalLoop=1;jettySize=auto;html=1;exitX=1;exitY=0.5;exitDx=0;exitDy=0;entryX=0;entryY=0.5;entryDx=0;entryDy=0;strokeColor=default;align=center;verticalAlign=middle;fontFamily=Helvetica;fontSize=11;fontColor=default;labelBackgroundColor=default;endArrow=block;endFill=1;" edge="1" parent="1" source="382b91b5511bd0f7-10" target="aAmiJ_XI5m1NhXgfSYHL-12">
          <mxGeometry relative="1" as="geometry" />
        </mxCell>
        <mxCell id="aAmiJ_XI5m1NhXgfSYHL-36" value="Complete" style="edgeLabel;html=1;align=center;verticalAlign=middle;resizable=0;points=[];fontFamily=Helvetica;fontSize=11;fontColor=default;labelBackgroundColor=#E6E6E6;" vertex="1" connectable="0" parent="aAmiJ_XI5m1NhXgfSYHL-14">
          <mxGeometry x="-0.358" y="-2" relative="1" as="geometry">
            <mxPoint as="offset" />
          </mxGeometry>
        </mxCell>
        <mxCell id="382b91b5511bd0f7-10" value="Execute" style="rounded=0;whiteSpace=wrap;html=1;arcSize=24;fillColor=#FF8000;strokeColor=#000000;shadow=0;comic=0;labelBackgroundColor=none;fontFamily=Verdana;fontSize=12;fontColor=#000000;align=center;" parent="1" vertex="1">
          <mxGeometry x="505" y="240" width="120" height="60" as="geometry" />
        </mxCell>
        <mxCell id="qw5E-p2FazVa0dcF7oxH-10" value="Paused" style="rounded=0;whiteSpace=wrap;html=1;arcSize=24;fillColor=#FF8000;strokeColor=#000000;shadow=0;comic=0;labelBackgroundColor=none;fontFamily=Verdana;fontSize=12;fontColor=#000000;align=center;" parent="1" vertex="1">
          <mxGeometry x="505" y="360" width="120" height="60" as="geometry" />
        </mxCell>
        <mxCell id="qw5E-p2FazVa0dcF7oxH-51" value="" style="edgeStyle=orthogonalEdgeStyle;rounded=0;orthogonalLoop=1;jettySize=auto;html=1;strokeColor=default;align=center;verticalAlign=middle;fontFamily=Helvetica;fontSize=11;fontColor=default;labelBackgroundColor=default;endArrow=block;endFill=1;" parent="1" target="382b91b5511bd0f7-7" edge="1">
          <mxGeometry relative="1" as="geometry">
            <mxPoint x="705" y="130" as="sourcePoint" />
          </mxGeometry>
        </mxCell>
        <mxCell id="qw5E-p2FazVa0dcF7oxH-49" value="" style="edgeStyle=orthogonalEdgeStyle;rounded=0;orthogonalLoop=1;jettySize=auto;html=1;strokeColor=default;align=center;verticalAlign=middle;fontFamily=Helvetica;fontSize=11;fontColor=default;labelBackgroundColor=default;endArrow=block;endFill=1;" parent="1" target="qw5E-p2FazVa0dcF7oxH-10" edge="1">
          <mxGeometry relative="1" as="geometry">
            <mxPoint x="715" y="390" as="sourcePoint" />
          </mxGeometry>
        </mxCell>
        <mxCell id="qw5E-p2FazVa0dcF7oxH-26" style="edgeStyle=orthogonalEdgeStyle;rounded=0;orthogonalLoop=1;jettySize=auto;html=1;entryX=0.5;entryY=0;entryDx=0;entryDy=0;strokeColor=default;align=center;verticalAlign=middle;fontFamily=Helvetica;fontSize=11;fontColor=default;labelBackgroundColor=default;endArrow=block;endFill=1;exitX=0.75;exitY=1;exitDx=0;exitDy=0;" parent="1" source="382b91b5511bd0f7-10" edge="1">
          <mxGeometry relative="1" as="geometry">
            <mxPoint x="775" y="360" as="targetPoint" />
          </mxGeometry>
        </mxCell>
        <mxCell id="aAmiJ_XI5m1NhXgfSYHL-34" value="Pause" style="edgeLabel;html=1;align=center;verticalAlign=middle;resizable=0;points=[];fontFamily=Helvetica;fontSize=11;fontColor=default;labelBackgroundColor=#E6E6E6;" vertex="1" connectable="0" parent="qw5E-p2FazVa0dcF7oxH-26">
          <mxGeometry x="-0.0936" y="2" relative="1" as="geometry">
            <mxPoint as="offset" />
          </mxGeometry>
        </mxCell>
        <mxCell id="qw5E-p2FazVa0dcF7oxH-29" value="" style="edgeStyle=orthogonalEdgeStyle;rounded=0;orthogonalLoop=1;jettySize=auto;html=1;strokeColor=default;align=center;verticalAlign=middle;fontFamily=Helvetica;fontSize=11;fontColor=default;labelBackgroundColor=default;endArrow=block;endFill=1;entryX=0;entryY=0.5;entryDx=0;entryDy=0;" parent="1" source="qw5E-p2FazVa0dcF7oxH-27" target="aAmiJ_XI5m1NhXgfSYHL-1" edge="1">
          <mxGeometry relative="1" as="geometry">
            <mxPoint x="225" y="270" as="targetPoint" />
          </mxGeometry>
        </mxCell>
        <mxCell id="aAmiJ_XI5m1NhXgfSYHL-31" value="Start" style="edgeLabel;html=1;align=center;verticalAlign=middle;resizable=0;points=[];fontFamily=Helvetica;fontSize=11;fontColor=default;labelBackgroundColor=#E6E6E6;" vertex="1" connectable="0" parent="qw5E-p2FazVa0dcF7oxH-29">
          <mxGeometry x="-0.25" y="3" relative="1" as="geometry">
            <mxPoint as="offset" />
          </mxGeometry>
        </mxCell>
        <mxCell id="qw5E-p2FazVa0dcF7oxH-27" value="Idle" style="rounded=0;whiteSpace=wrap;html=1;arcSize=24;fillColor=#FF8000;strokeColor=#000000;shadow=0;comic=0;labelBackgroundColor=none;fontFamily=Verdana;fontSize=12;fontColor=#000000;align=center;" parent="1" vertex="1">
          <mxGeometry x="100" y="240" width="120" height="60" as="geometry" />
        </mxCell>
        <mxCell id="qw5E-p2FazVa0dcF7oxH-45" style="edgeStyle=orthogonalEdgeStyle;rounded=0;orthogonalLoop=1;jettySize=auto;html=1;entryX=0.5;entryY=1;entryDx=0;entryDy=0;strokeColor=default;align=center;verticalAlign=middle;fontFamily=Helvetica;fontSize=11;fontColor=default;labelBackgroundColor=default;endArrow=block;endFill=1;" parent="1" source="qw5E-p2FazVa0dcF7oxH-32" target="qw5E-p2FazVa0dcF7oxH-27" edge="1">
          <mxGeometry relative="1" as="geometry">
            <mxPoint x="95" y="420" as="targetPoint" />
          </mxGeometry>
        </mxCell>
        <mxCell id="qw5E-p2FazVa0dcF7oxH-32" value="Stopped" style="rounded=0;whiteSpace=wrap;html=1;arcSize=24;fillColor=#FF8000;strokeColor=#000000;shadow=0;comic=0;labelBackgroundColor=none;fontFamily=Verdana;fontSize=12;fontColor=#000000;align=center;" parent="1" vertex="1">
          <mxGeometry x="505" y="470" width="120" height="60" as="geometry" />
        </mxCell>
        <mxCell id="qw5E-p2FazVa0dcF7oxH-46" style="edgeStyle=orthogonalEdgeStyle;rounded=0;orthogonalLoop=1;jettySize=auto;html=1;strokeColor=default;align=center;verticalAlign=middle;fontFamily=Helvetica;fontSize=11;fontColor=default;labelBackgroundColor=default;endArrow=block;endFill=1;entryX=0.5;entryY=1;entryDx=0;entryDy=0;" parent="1" source="qw5E-p2FazVa0dcF7oxH-33" edge="1" target="qw5E-p2FazVa0dcF7oxH-27">
          <mxGeometry relative="1" as="geometry">
            <mxPoint x="95" y="420.0000000000002" as="targetPoint" />
          </mxGeometry>
        </mxCell>
        <mxCell id="qw5E-p2FazVa0dcF7oxH-33" value="Aborted" style="rounded=0;whiteSpace=wrap;html=1;arcSize=24;fillColor=#FF8000;strokeColor=#000000;shadow=0;comic=0;labelBackgroundColor=none;fontFamily=Verdana;fontSize=12;fontColor=#000000;align=center;" parent="1" vertex="1">
          <mxGeometry x="505" y="580" width="120" height="60" as="geometry" />
        </mxCell>
        <mxCell id="aAmiJ_XI5m1NhXgfSYHL-19" style="edgeStyle=orthogonalEdgeStyle;rounded=0;orthogonalLoop=1;jettySize=auto;html=1;exitX=0.5;exitY=1;exitDx=0;exitDy=0;entryX=0.5;entryY=1;entryDx=0;entryDy=0;strokeColor=default;align=center;verticalAlign=middle;fontFamily=Helvetica;fontSize=11;fontColor=default;labelBackgroundColor=default;endArrow=block;endFill=1;" edge="1" parent="1" source="qw5E-p2FazVa0dcF7oxH-34" target="qw5E-p2FazVa0dcF7oxH-27">
          <mxGeometry relative="1" as="geometry">
            <Array as="points">
              <mxPoint x="970" y="460" />
              <mxPoint x="160" y="460" />
            </Array>
          </mxGeometry>
        </mxCell>
        <mxCell id="aAmiJ_XI5m1NhXgfSYHL-39" value="Reset" style="edgeLabel;html=1;align=center;verticalAlign=middle;resizable=0;points=[];fontFamily=Helvetica;fontSize=11;fontColor=default;labelBackgroundColor=#E6E6E6;" vertex="1" connectable="0" parent="aAmiJ_XI5m1NhXgfSYHL-19">
          <mxGeometry x="0.8956" y="2" relative="1" as="geometry">
            <mxPoint as="offset" />
          </mxGeometry>
        </mxCell>
        <mxCell id="qw5E-p2FazVa0dcF7oxH-34" value="Completed" style="rounded=0;whiteSpace=wrap;html=1;arcSize=24;fillColor=#FF8000;strokeColor=#000000;shadow=0;comic=0;labelBackgroundColor=none;fontFamily=Verdana;fontSize=12;fontColor=#000000;align=center;" parent="1" vertex="1">
          <mxGeometry x="910" y="240" width="120" height="60" as="geometry" />
        </mxCell>
        <mxCell id="qw5E-p2FazVa0dcF7oxH-41" value="" style="edgeStyle=orthogonalEdgeStyle;rounded=0;orthogonalLoop=1;jettySize=auto;html=1;strokeColor=default;align=center;verticalAlign=middle;fontFamily=Helvetica;fontSize=11;fontColor=default;labelBackgroundColor=default;endArrow=block;endFill=1;" parent="1" target="qw5E-p2FazVa0dcF7oxH-32" edge="1">
          <mxGeometry relative="1" as="geometry">
            <mxPoint x="700" y="500" as="sourcePoint" />
          </mxGeometry>
        </mxCell>
        <mxCell id="qw5E-p2FazVa0dcF7oxH-43" value="" style="edgeStyle=orthogonalEdgeStyle;rounded=0;orthogonalLoop=1;jettySize=auto;html=1;strokeColor=default;align=center;verticalAlign=middle;fontFamily=Helvetica;fontSize=11;fontColor=default;labelBackgroundColor=default;endArrow=block;endFill=1;exitX=0.033;exitY=0.5;exitDx=0;exitDy=0;exitPerimeter=0;" parent="1" source="aAmiJ_XI5m1NhXgfSYHL-21" target="qw5E-p2FazVa0dcF7oxH-33" edge="1">
          <mxGeometry relative="1" as="geometry">
            <mxPoint x="700" y="610" as="sourcePoint" />
          </mxGeometry>
        </mxCell>
        <mxCell id="aAmiJ_XI5m1NhXgfSYHL-18" style="edgeStyle=orthogonalEdgeStyle;rounded=0;orthogonalLoop=1;jettySize=auto;html=1;exitX=1;exitY=0.5;exitDx=0;exitDy=0;entryX=0;entryY=0.5;entryDx=0;entryDy=0;strokeColor=default;align=center;verticalAlign=middle;fontFamily=Helvetica;fontSize=11;fontColor=default;labelBackgroundColor=default;endArrow=block;endFill=1;" edge="1" parent="1" source="aAmiJ_XI5m1NhXgfSYHL-1" target="382b91b5511bd0f7-10">
          <mxGeometry relative="1" as="geometry" />
        </mxCell>
        <mxCell id="aAmiJ_XI5m1NhXgfSYHL-1" value="Starting" style="rounded=0;whiteSpace=wrap;html=1;arcSize=24;fillColor=#B3B3B3;strokeColor=#000000;shadow=0;comic=0;labelBackgroundColor=none;fontFamily=Verdana;fontSize=12;fontColor=#000000;align=center;" vertex="1" parent="1">
          <mxGeometry x="300" y="240" width="120" height="60" as="geometry" />
        </mxCell>
        <mxCell id="aAmiJ_XI5m1NhXgfSYHL-2" value="Holding" style="rounded=0;whiteSpace=wrap;html=1;arcSize=24;fillColor=#B3B3B3;strokeColor=#000000;shadow=0;comic=0;labelBackgroundColor=none;fontFamily=Verdana;fontSize=12;fontColor=#000000;align=center;" vertex="1" parent="1">
          <mxGeometry x="706" y="100" width="120" height="60" as="geometry" />
        </mxCell>
        <mxCell id="aAmiJ_XI5m1NhXgfSYHL-16" style="edgeStyle=orthogonalEdgeStyle;rounded=0;orthogonalLoop=1;jettySize=auto;html=1;exitX=0.5;exitY=1;exitDx=0;exitDy=0;entryX=0.25;entryY=0;entryDx=0;entryDy=0;strokeColor=default;align=center;verticalAlign=middle;fontFamily=Helvetica;fontSize=11;fontColor=default;labelBackgroundColor=default;endArrow=block;endFill=1;" edge="1" parent="1" source="aAmiJ_XI5m1NhXgfSYHL-3" target="382b91b5511bd0f7-10">
          <mxGeometry relative="1" as="geometry" />
        </mxCell>
        <mxCell id="aAmiJ_XI5m1NhXgfSYHL-32" value="Start/Unhold" style="edgeLabel;html=1;align=center;verticalAlign=middle;resizable=0;points=[];fontFamily=Helvetica;fontSize=11;fontColor=default;labelBackgroundColor=#E6E6E6;" vertex="1" connectable="0" parent="aAmiJ_XI5m1NhXgfSYHL-16">
          <mxGeometry x="-0.2" relative="1" as="geometry">
            <mxPoint as="offset" />
          </mxGeometry>
        </mxCell>
        <mxCell id="aAmiJ_XI5m1NhXgfSYHL-3" value="Unholding" style="rounded=0;whiteSpace=wrap;html=1;arcSize=24;fillColor=#B3B3B3;strokeColor=#000000;shadow=0;comic=0;labelBackgroundColor=none;fontFamily=Verdana;fontSize=12;fontColor=#000000;align=center;" vertex="1" parent="1">
          <mxGeometry x="300" y="100" width="120" height="60" as="geometry" />
        </mxCell>
        <mxCell id="aAmiJ_XI5m1NhXgfSYHL-4" value="Pausing" style="rounded=0;whiteSpace=wrap;html=1;arcSize=24;fillColor=#B3B3B3;strokeColor=#000000;shadow=0;comic=0;labelBackgroundColor=none;fontFamily=Verdana;fontSize=12;fontColor=#000000;align=center;" vertex="1" parent="1">
          <mxGeometry x="706" y="360" width="120" height="60" as="geometry" />
        </mxCell>
        <mxCell id="aAmiJ_XI5m1NhXgfSYHL-6" value="" style="edgeStyle=orthogonalEdgeStyle;rounded=0;orthogonalLoop=1;jettySize=auto;html=1;strokeColor=default;align=center;verticalAlign=middle;fontFamily=Helvetica;fontSize=11;fontColor=default;labelBackgroundColor=default;endArrow=block;endFill=1;" edge="1" parent="1" source="qw5E-p2FazVa0dcF7oxH-10" target="aAmiJ_XI5m1NhXgfSYHL-5">
          <mxGeometry relative="1" as="geometry">
            <mxPoint x="505" y="390" as="sourcePoint" />
            <mxPoint x="285" y="300" as="targetPoint" />
          </mxGeometry>
        </mxCell>
        <mxCell id="aAmiJ_XI5m1NhXgfSYHL-17" style="edgeStyle=orthogonalEdgeStyle;rounded=0;orthogonalLoop=1;jettySize=auto;html=1;exitX=0.5;exitY=0;exitDx=0;exitDy=0;entryX=0.25;entryY=1;entryDx=0;entryDy=0;strokeColor=default;align=center;verticalAlign=middle;fontFamily=Helvetica;fontSize=11;fontColor=default;labelBackgroundColor=default;endArrow=block;endFill=1;" edge="1" parent="1" source="aAmiJ_XI5m1NhXgfSYHL-5" target="382b91b5511bd0f7-10">
          <mxGeometry relative="1" as="geometry" />
        </mxCell>
        <mxCell id="aAmiJ_XI5m1NhXgfSYHL-35" value="Resume/Start" style="edgeLabel;html=1;align=center;verticalAlign=middle;resizable=0;points=[];fontFamily=Helvetica;fontSize=11;fontColor=default;labelBackgroundColor=#E6E6E6;" vertex="1" connectable="0" parent="aAmiJ_XI5m1NhXgfSYHL-17">
          <mxGeometry x="0.0383" y="2" relative="1" as="geometry">
            <mxPoint as="offset" />
          </mxGeometry>
        </mxCell>
        <mxCell id="aAmiJ_XI5m1NhXgfSYHL-5" value="Resuming" style="rounded=0;whiteSpace=wrap;html=1;arcSize=24;fillColor=#B3B3B3;strokeColor=#000000;shadow=0;comic=0;labelBackgroundColor=none;fontFamily=Verdana;fontSize=12;fontColor=#000000;align=center;" vertex="1" parent="1">
          <mxGeometry x="300" y="360" width="120" height="60" as="geometry" />
        </mxCell>
        <mxCell id="aAmiJ_XI5m1NhXgfSYHL-15" value="" style="edgeStyle=orthogonalEdgeStyle;rounded=0;orthogonalLoop=1;jettySize=auto;html=1;strokeColor=default;align=center;verticalAlign=middle;fontFamily=Helvetica;fontSize=11;fontColor=default;labelBackgroundColor=default;endArrow=block;endFill=1;" edge="1" parent="1" source="aAmiJ_XI5m1NhXgfSYHL-12" target="qw5E-p2FazVa0dcF7oxH-34">
          <mxGeometry relative="1" as="geometry" />
        </mxCell>
        <mxCell id="aAmiJ_XI5m1NhXgfSYHL-12" value="Completing" style="rounded=0;whiteSpace=wrap;html=1;arcSize=24;fillColor=#B3B3B3;strokeColor=#000000;shadow=0;comic=0;labelBackgroundColor=none;fontFamily=Verdana;fontSize=12;fontColor=#000000;align=center;" vertex="1" parent="1">
          <mxGeometry x="706" y="240" width="120" height="60" as="geometry" />
        </mxCell>
        <mxCell id="aAmiJ_XI5m1NhXgfSYHL-20" value="Stopping" style="rounded=0;whiteSpace=wrap;html=1;arcSize=24;fillColor=#B3B3B3;strokeColor=#000000;shadow=0;comic=0;labelBackgroundColor=none;fontFamily=Verdana;fontSize=12;fontColor=#000000;align=center;" vertex="1" parent="1">
          <mxGeometry x="700" y="470" width="120" height="60" as="geometry" />
        </mxCell>
        <mxCell id="aAmiJ_XI5m1NhXgfSYHL-21" value="Aborting" style="rounded=0;whiteSpace=wrap;html=1;arcSize=24;fillColor=#B3B3B3;strokeColor=#000000;shadow=0;comic=0;labelBackgroundColor=none;fontFamily=Verdana;fontSize=12;fontColor=#000000;align=center;" vertex="1" parent="1">
          <mxGeometry x="706" y="580" width="120" height="60" as="geometry" />
        </mxCell>
        <mxCell id="aAmiJ_XI5m1NhXgfSYHL-22" value="" style="edgeStyle=orthogonalEdgeStyle;rounded=0;orthogonalLoop=1;jettySize=auto;html=1;strokeColor=default;align=center;verticalAlign=middle;fontFamily=Helvetica;fontSize=11;fontColor=default;labelBackgroundColor=default;endArrow=block;endFill=1;" edge="1" parent="1">
          <mxGeometry relative="1" as="geometry">
            <mxPoint x="895" y="499.5" as="sourcePoint" />
            <mxPoint x="820" y="499.5" as="targetPoint" />
          </mxGeometry>
        </mxCell>
        <mxCell id="aAmiJ_XI5m1NhXgfSYHL-37" value="Stop" style="edgeLabel;html=1;align=center;verticalAlign=middle;resizable=0;points=[];fontFamily=Helvetica;fontSize=11;fontColor=default;labelBackgroundColor=#E6E6E6;" vertex="1" connectable="0" parent="aAmiJ_XI5m1NhXgfSYHL-22">
          <mxGeometry x="-0.2" y="3" relative="1" as="geometry">
            <mxPoint as="offset" />
          </mxGeometry>
        </mxCell>
        <mxCell id="aAmiJ_XI5m1NhXgfSYHL-23" value="" style="edgeStyle=orthogonalEdgeStyle;rounded=0;orthogonalLoop=1;jettySize=auto;html=1;strokeColor=default;align=center;verticalAlign=middle;fontFamily=Helvetica;fontSize=11;fontColor=default;labelBackgroundColor=default;endArrow=block;endFill=1;" edge="1" parent="1">
          <mxGeometry relative="1" as="geometry">
            <mxPoint x="901" y="609.5" as="sourcePoint" />
            <mxPoint x="826" y="609.5" as="targetPoint" />
          </mxGeometry>
        </mxCell>
        <mxCell id="aAmiJ_XI5m1NhXgfSYHL-38" value="Abort" style="edgeLabel;html=1;align=center;verticalAlign=middle;resizable=0;points=[];fontFamily=Helvetica;fontSize=11;fontColor=default;labelBackgroundColor=#E6E6E6;" vertex="1" connectable="0" parent="aAmiJ_XI5m1NhXgfSYHL-23">
          <mxGeometry x="-0.3067" y="-2" relative="1" as="geometry">
            <mxPoint as="offset" />
          </mxGeometry>
        </mxCell>
        <mxCell id="aAmiJ_XI5m1NhXgfSYHL-27" value="Running" style="rounded=0;whiteSpace=wrap;html=1;arcSize=24;fillColor=none;strokeColor=none;shadow=0;comic=0;labelBackgroundColor=none;fontFamily=Verdana;fontSize=12;fontColor=#000000;align=center;" vertex="1" parent="1">
          <mxGeometry x="80" y="80" width="120" height="60" as="geometry" />
        </mxCell>
      </root>
    </mxGraphModel>
  </diagram>
  <diagram id="-D4EB3z2NrV5Wu3oxCwW" name="Seite-2">
    <mxGraphModel dx="1422" dy="763" grid="1" gridSize="10" guides="1" tooltips="1" connect="1" arrows="1" fold="1" page="1" pageScale="1" pageWidth="1169" pageHeight="827" math="0" shadow="0">
      <root>
        <mxCell id="0" />
        <mxCell id="1" parent="0" />
        <mxCell id="Qbpo_AQR7p0ZwZ3TXR_l-1" value="FB_Observer" style="swimlane;fontStyle=1;align=center;verticalAlign=top;childLayout=stackLayout;horizontal=1;startSize=26;horizontalStack=0;resizeParent=1;resizeParentMax=0;resizeLast=0;collapsible=1;marginBottom=0;whiteSpace=wrap;html=1;fontFamily=Helvetica;fontSize=11;fontColor=default;labelBackgroundColor=default;" vertex="1" parent="1">
          <mxGeometry x="180" y="180" width="160" height="112" as="geometry" />
        </mxCell>
        <mxCell id="Qbpo_AQR7p0ZwZ3TXR_l-3" value="" style="line;strokeWidth=1;fillColor=none;align=left;verticalAlign=middle;spacingTop=-1;spacingLeft=3;spacingRight=3;rotatable=0;labelPosition=right;points=[];portConstraint=eastwest;strokeColor=inherit;fontFamily=Helvetica;fontSize=11;fontColor=default;labelBackgroundColor=default;" vertex="1" parent="Qbpo_AQR7p0ZwZ3TXR_l-1">
          <mxGeometry y="26" width="160" height="8" as="geometry" />
        </mxCell>
        <mxCell id="Qbpo_AQR7p0ZwZ3TXR_l-5" value="+ M_Attach" style="text;strokeColor=none;fillColor=none;align=left;verticalAlign=top;spacingLeft=4;spacingRight=4;overflow=hidden;rotatable=0;points=[[0,0.5],[1,0.5]];portConstraint=eastwest;whiteSpace=wrap;html=1;fontFamily=Helvetica;fontSize=11;fontColor=default;labelBackgroundColor=default;" vertex="1" parent="Qbpo_AQR7p0ZwZ3TXR_l-1">
          <mxGeometry y="34" width="160" height="26" as="geometry" />
        </mxCell>
        <mxCell id="Qbpo_AQR7p0ZwZ3TXR_l-4" value="+ M_Dettach" style="text;strokeColor=none;fillColor=none;align=left;verticalAlign=top;spacingLeft=4;spacingRight=4;overflow=hidden;rotatable=0;points=[[0,0.5],[1,0.5]];portConstraint=eastwest;whiteSpace=wrap;html=1;fontFamily=Helvetica;fontSize=11;fontColor=default;labelBackgroundColor=default;" vertex="1" parent="Qbpo_AQR7p0ZwZ3TXR_l-1">
          <mxGeometry y="60" width="160" height="26" as="geometry" />
        </mxCell>
        <mxCell id="Qbpo_AQR7p0ZwZ3TXR_l-6" value="+ M_Notify" style="text;strokeColor=none;fillColor=none;align=left;verticalAlign=top;spacingLeft=4;spacingRight=4;overflow=hidden;rotatable=0;points=[[0,0.5],[1,0.5]];portConstraint=eastwest;whiteSpace=wrap;html=1;fontFamily=Helvetica;fontSize=11;fontColor=default;labelBackgroundColor=default;" vertex="1" parent="Qbpo_AQR7p0ZwZ3TXR_l-1">
          <mxGeometry y="86" width="160" height="26" as="geometry" />
        </mxCell>
      </root>
    </mxGraphModel>
  </diagram>
</mxfile>
